<svg xmlns="http://www.w3.org/2000/svg" viewBox="0 0 82 91">
    <g>
        <path d="M43.257,83.773c-.236-1.076-.382-12.129.3-12.133-.993.005-1.986.019-2.978.06.305,5.147.628,11.479-3,15.657-2.011,2.318-5.64,4.048-8.7,2.813-2.66-1.072-3.293-3.951-3.557-6.509-.076-.731-.8-12.432-.112-12.477a8.84,8.84,0,0,1-9.607-7.34,2.11,2.11,0,0,1-.032-.362,2.078,2.078,0,0,1-.04-.5c.432-9.973-.086-19.963.67-29.924a2,2,0,0,1,.463-1.172A1.838,1.838,0,0,1,18.548,30.4c15.732.006,31.463.159,47.2.167a1.964,1.964,0,0,1,1.837,2.664c-.029,10.043-.361,20.074-1.168,30.087a3.145,3.145,0,0,1,0,.332c-.239,2.592-1.076,5.039-3.266,6.631A8.693,8.693,0,0,1,58.735,71.8c.294,2.521.364,5.143.484,7.679.213,4.488-.825,8.905-5.5,10.691a7.4,7.4,0,0,1-2.651.5C47.322,90.671,44.114,87.677,43.257,83.773ZM47.669,69.8c-.1,5.1-3.558,15.057,3.076,17.1,6.827-1.562,4.56-10.655,3.866-16.08-.749-1.235-.23-3.173,1.592-3.015,3.245.284,5.863-.591,6.192-4.156,0-.012.005-.02.006-.032a1.948,1.948,0,0,1-.006-.3c.772-9.574,1.1-19.166,1.155-28.767-14.469-.02-28.939-.139-43.411-.154-.617,9.517-.175,19.06-.588,28.589,0,.029-.01.055-.012.085.311,1.484.858,2.988,2.326,3.687a7.831,7.831,0,0,0,4.684.288,2.145,2.145,0,0,1,.778.007,1.938,1.938,0,0,1,1.931,1.918c.125,4.572-2.812,14.806,2.343,17.49.058-.011.109-.028.167-.034,7.076-.733,4.945-11.852,4.687-16.625a1.778,1.778,0,0,1,1.921-1.924A2.93,2.93,0,0,1,38.8,67.8a16.7,16.7,0,0,1,2.843.113,12.466,12.466,0,0,0,3.567.013,2.357,2.357,0,0,1,.495-.052A1.844,1.844,0,0,1,47.669,69.8ZM.931,57.163a2.519,2.519,0,0,1,.01-.276c0-.02-.009-.035-.01-.056C.483,50.837.286,44.818.338,38.807.37,34.88,0,30.191,4.3,28.283c2.669-1.184,6.931-1.652,8.105,1.917,2.927,8.9,1.825,18.474,1.076,27.627,0,.042-.016.078-.021.118a2.324,2.324,0,0,1-.051.413c-.775,3.582-3.358,5.228-5.976,5.228A6.56,6.56,0,0,1,.931,57.163ZM5.264,32.12c-1.689,1.406-.913,5.131-.854,6.979.185,5.926.047,11.807.538,17.732a2.155,2.155,0,0,1-.005.3c0,.013,0,.022.005.035A3.251,3.251,0,0,0,5.7,59.287a3.259,3.259,0,0,0,2.4.276.856.856,0,0,1,.085-.01,1.741,1.741,0,0,0,.158-.082c.056-.037.094-.064.122-.084a3.741,3.741,0,0,0,.387-.378c-.1.151-.086.129.05-.066a5.187,5.187,0,0,0,.3-.52c.021-.043.033-.072.048-.1a8.339,8.339,0,0,0,.25-.887c.454-5.469,1.066-10.965.706-16.456-.1-1.478-.4-9.621-3.269-9.62A2.715,2.715,0,0,0,5.264,32.12ZM72.151,61.606a6.837,6.837,0,0,1-2.559-5.44,2.168,2.168,0,0,1,.01-.278.538.538,0,0,1-.01-.055,230.167,230.167,0,0,1-.5-23.108,1.994,1.994,0,0,1,.205-.869,2.459,2.459,0,0,1,.034-.492,5.482,5.482,0,0,1,5.953-4.623,2.3,2.3,0,0,1,.7.151,6.658,6.658,0,0,1,4,.952,2.156,2.156,0,0,1,.581.534,2.011,2.011,0,0,1,.512.825C84,38.1,82.895,47.677,82.144,56.831a1.189,1.189,0,0,1-.022.118,2.247,2.247,0,0,1-.049.413,6.814,6.814,0,0,1-3.6,4.849,2.567,2.567,0,0,1-.638.2l-.01,0-.018,0c-.048.008-.1.019-.143.023a11.771,11.771,0,0,1-1.977.184A5.918,5.918,0,0,1,72.151,61.606Zm1.695-30.394c-1.637,1.568-.847,5.391-.78,7.349.1,2.9-1.5,20.163,2.954,20.091,1.174-.02,1.738-1.167,2.039-2.242.105-.375.179-.744.235-1.05a67.482,67.482,0,0,0,.549-15.621c-.084-1.353-.548-9.428-3.266-9.428A2.641,2.641,0,0,0,73.846,31.212ZM40.313,28.155c-4.3-.129-8.6-.272-12.908-.381-2.1-.053-4.194-.128-6.29-.137a13.613,13.613,0,0,0-1.364.1c-1.192.123-2.526.247-3.313-.363-2.609-2.025,1.594-10.241,2.854-12.383.432-.736,6.386-8.24,6.843-7.642q-1.521-1.991-2.963-4.04a1.994,1.994,0,0,1,.721-2.73A2.054,2.054,0,0,1,26.64,1.3c.926,1.315,1.864,2.624,2.847,3.9a27.135,27.135,0,0,1,10.391-3.14A24.029,24.029,0,0,1,55.9,5.841,47.846,47.846,0,0,0,59.8,1.724a2,2,0,0,1,2.84,2.822,46.922,46.922,0,0,1-3.612,3.836c4.477,4.292,7.463,10.4,8.814,17.334a1.974,1.974,0,0,1-.247,1.442,1.853,1.853,0,0,1-1.858,1.416q-1.455.011-2.908.011C55.326,28.583,47.818,28.379,40.313,28.155ZM39.878,6.042c-9.726,1.291-17.921,8.041-19.687,17.586,14.431.244,28.851.976,43.287.951C60.834,14.257,54,5.832,42.953,5.834A23.419,23.419,0,0,0,39.878,6.042ZM30.6,14.272a2,2,0,0,1,0,3.99A2,2,0,0,1,30.6,14.272Zm22.928-.167a2,2,0,0,1,0,3.99A2,2,0,0,1,53.526,14.106Z"/>
    </g>
</svg>
