<svg xmlns="http://www.w3.org/2000/svg" xmlns:xlink="http://www.w3.org/1999/xlink" viewBox="0 0 612 612">
    <g>
        <path fill="#c20c0c"
              d="M611.99,359.174c0-.1.01-.2.01-.3,0-.054-.007-.107-.008-.161q-.006-.309-.032-.619c-.011-.138-.022-.272-.038-.408-.021-.172-.049-.344-.079-.517s-.062-.34-.1-.508c-.03-.135-.066-.267-.1-.4-.054-.2-.112-.4-.179-.588-.017-.053-.029-.1-.048-.157L520.23,102.228a41.7,41.7,0,0,0,28.323-39.442,9.914,9.914,0,0,0-19.827,0,21.835,21.835,0,0,1-21.81,21.81c-32.422,0-55.085-9.346-79.08-19.242-25.741-10.616-52.306-21.569-92.358-22.916a31.2,31.2,0,0,0-19.564-19.657V9.914a9.914,9.914,0,0,0-19.827,0V22.78a31.2,31.2,0,0,0-19.564,19.657c-40.052,1.347-66.615,12.3-92.358,22.916-23.995,9.9-46.659,19.243-79.08,19.243a21.835,21.835,0,0,1-21.81-21.81,9.914,9.914,0,1,0-19.827,0A41.7,41.7,0,0,0,91.77,102.228L.586,355.514c-.018.052-.03.1-.048.157-.066.193-.124.39-.178.588-.037.134-.073.267-.1.4-.038.168-.07.337-.1.508s-.058.344-.079.517c-.016.135-.028.271-.038.408-.016.206-.028.414-.032.619,0,.054-.007.107-.007.161,0,.1.01.2.01.3s0,.226.012.338c.238,20.122,11.664,38.737,32.267,52.473,19.585,13.057,45.439,20.248,72.795,20.248s53.21-7.191,72.795-20.248c20.6-13.736,32.027-32.35,32.267-52.473.008-.112.008-.226.012-.338s.011-.2.011-.3c0-.054-.007-.107-.008-.161q-.006-.309-.032-.619c-.011-.138-.023-.272-.038-.408-.021-.172-.049-.344-.079-.517s-.062-.34-.1-.508c-.03-.135-.066-.267-.1-.4-.054-.2-.112-.4-.178-.588-.017-.053-.029-.1-.048-.157L118.994,103.88c29.2-2.26,51.285-11.353,72.729-20.2,23.931-9.87,48.63-20.048,84.9-21.4a31.2,31.2,0,0,0,19.464,19.361v290.1a31.029,31.029,0,0,0-12.808,50.581,30.94,30.94,0,0,0-8.341,21.149v106.4H231.977a31.1,31.1,0,0,0-31.063,31.063v21.149A9.913,9.913,0,0,0,210.828,612H401.169a9.913,9.913,0,0,0,9.914-9.914V580.937a31.1,31.1,0,0,0-31.063-31.063H337.063V443.469a30.94,30.94,0,0,0-8.341-21.149,31.029,31.029,0,0,0-12.808-50.581V81.643a31.2,31.2,0,0,0,19.464-19.361c36.269,1.355,60.966,11.533,84.9,21.4,21.444,8.843,43.534,17.936,72.729,20.2L402.417,355.514c-.019.052-.03.1-.048.157-.066.193-.124.39-.178.588-.037.133-.073.267-.1.4-.038.168-.07.337-.1.507s-.058.344-.079.517c-.016.135-.028.271-.038.409-.016.206-.028.414-.032.619,0,.054-.008.107-.008.161,0,.1.01.2.01.3s0,.226.012.338c.238,20.122,11.664,38.737,32.267,52.473,19.587,13.057,45.44,20.248,72.8,20.248s53.21-7.191,72.795-20.248c20.6-13.736,32.028-32.35,32.267-52.473C611.985,359.4,611.985,359.286,611.99,359.174Zm-506.905-235.4L186.15,348.959H24.019Zm0,288.629c-40.839,0-76.076-19.142-83.722-43.62H188.807C181.16,393.264,145.923,412.406,105.084,412.406ZM391.257,580.937v11.235H220.743V580.937A11.248,11.248,0,0,1,231.978,569.7H380.022A11.248,11.248,0,0,1,391.257,580.937Zm-96.492-31.063V443.469a11.235,11.235,0,0,1,22.471,0V549.875ZM306,412.406a11.235,11.235,0,1,1,11.235-11.236A11.248,11.248,0,0,1,306,412.406Zm.018-348.96h-.037a11.234,11.234,0,0,1-.013-22.468h.063a11.234,11.234,0,0,1-.013,22.468ZM587.981,348.959H425.85l81.066-225.182Zm-81.066,63.447c-40.839,0-76.076-19.142-83.722-43.62H590.638C582.992,393.264,547.755,412.406,506.916,412.406Z"/>
    </g>
</svg>
