<svg xmlns="http://www.w3.org/2000/svg" xmlns:xlink="http://www.w3.org/1999/xlink" viewBox="0 0 478 512">
    <g>
        <path fill="#c20c0c"
              d="M42.64,512A42.7,42.7,0,0,1,0,469.333V42.667A42.7,42.7,0,0,1,42.639,0h272.9a8.5,8.5,0,0,1,6.029,2.5l85.281,85.334A8.53,8.53,0,1,1,394.79,99.9L312.008,17.067H42.639a25.623,25.623,0,0,0-25.584,25.6V469.332a25.623,25.623,0,0,0,25.584,25.6H264.37a8.534,8.534,0,0,1,0,17.069Zm255.842,0a8.534,8.534,0,0,1-8.528-8.533v-51.2a8.549,8.549,0,0,1,2.5-6.033l111.736-111.8c13.09-13.09,33.062-13.116,46.17,0L467.415,351.5c13.586,13.6,13.586,32.605,0,46.2L355.68,509.5a8.542,8.542,0,0,1-6.03,2.5Zm8.528-17.068H346.12L307.011,455.8Zm37.642-25.6,13.526,13.534,74.092-74.138-13.526-13.533Zm-25.585-25.6,13.526,13.534,74.092-74.138-13.526-13.534ZM416.246,346.5,405.22,357.53l39.109,39.134,11.028-11.034c6.9-6.9,6.9-15.155,0-22.067L438.3,346.5c-3.381-3.379-7.2-5.063-11.025-5.062S419.619,343.125,416.246,346.5ZM93.808,426.667a8.534,8.534,0,0,1-8.527-8.534v-51.2a8.533,8.533,0,0,1,8.527-8.533h51.169a8.533,8.533,0,0,1,8.527,8.533v51.2a8.534,8.534,0,0,1-8.527,8.534Zm8.528-17.068h34.112V375.467H102.336Zm93.809,17.066a8.533,8.533,0,0,1,0-17.066H264.37a8.533,8.533,0,0,1,0,17.066ZM298.48,375.47a8.53,8.53,0,0,1-8.529-8.53v-.01a8.53,8.53,0,0,1,8.529-8.53H315.53a8.531,8.531,0,0,1,8.53,8.53v.01a8.53,8.53,0,0,1-8.53,8.53Zm-102.335,0a8.533,8.533,0,0,1,0-17.067H264.37a8.533,8.533,0,0,1,0,17.067Zm153.507-51.2H298.483a8.533,8.533,0,0,1,0-17.066h51.169a8.533,8.533,0,0,1,0,17.066Zm-153.507,0a8.533,8.533,0,0,1,0-17.066H264.37a8.533,8.533,0,0,1,0,17.066Zm-91.31-2.5L87.779,304.7a8.529,8.529,0,0,1,12.058-12.066l9.7,9.7L137.881,259.8a8.531,8.531,0,1,1,14.191,9.472l-34.112,51.2a8.507,8.507,0,0,1-6.251,3.755,6.888,6.888,0,0,1-.845.043A8.534,8.534,0,0,1,104.835,321.765Zm321.569-23.1V136.534H349.652a42.7,42.7,0,0,1-42.641-42.667V51.2a8.527,8.527,0,1,1,17.055,0V93.866a25.624,25.624,0,0,0,25.586,25.6h85.28A8.534,8.534,0,0,1,443.46,128V298.667a8.528,8.528,0,1,1-17.056,0Zm-179.09-25.6a8.533,8.533,0,0,1,0-17.066h85.28a8.533,8.533,0,0,1,0,17.066Zm-51.169,0a8.533,8.533,0,0,1,0-17.066H213.2a8.533,8.533,0,0,1,0,17.066Zm85.28-51.2a8.533,8.533,0,0,1,0-17.066H349.65a8.533,8.533,0,0,1,0,17.066Zm-34.111,0H196.146a8.533,8.533,0,0,1,0-17.066h51.169a8.533,8.533,0,0,1,0,17.066Zm-153.506,0a8.533,8.533,0,0,1-8.527-8.533v-51.2a8.534,8.534,0,0,1,8.527-8.533h51.169a8.534,8.534,0,0,1,8.527,8.533v51.2a8.533,8.533,0,0,1-8.527,8.533Zm8.528-17.066h34.112V170.667H102.336Zm93.809-34.132a8.533,8.533,0,0,1,0-17.067h85.28a8.533,8.533,0,0,1,0,17.067Z"/>
    </g>
</svg>
