<svg xmlns="http://www.w3.org/2000/svg" xmlns:xlink="http://www.w3.org/1999/xlink" viewBox="0 0 25 22">
    <g>
        <path d="M22.082,22a.42.42,0,0,1-.415-.425l.026-6.769a.42.42,0,0,1,.417-.421h0a.42.42,0,0,1,.415.425L22.5,21.578a.42.42,0,0,1-.417.421Zm-10.415-.422v-6.77a.417.417,0,1,1,.833,0v6.77a.417.417,0,1,1-.833,0Zm-9.167,0V14.808a.417.417,0,1,1,.833,0v6.769a.417.417,0,1,1-.833,0Zm21.667-.846V13.962a2.738,2.738,0,0,0-.778-1.939,3.843,3.843,0,0,0-2.584-1.006A2.635,2.635,0,0,1,18.75,13.5v2.15a.417.417,0,1,1-.833,0V13.5c-1.633-.253-2.083-1.976-2.083-2.922a.417.417,0,1,1,.833,0c0,.086.029,2.111,1.666,2.111S20,10.667,20,10.58a.429.429,0,0,1,.429-.421,4.847,4.847,0,0,1,3.55,1.264A3.583,3.583,0,0,1,25,13.962v6.769a.417.417,0,1,1-.833,0Zm-10,0V12.269a1.39,1.39,0,0,0-.428-1.016,5.8,5.8,0,0,0-3.818-1.09l-2.013,9.8v.006c0,.014-.013.025-.016.038a.437.437,0,0,1-.047.112.382.382,0,0,1-.059.061.423.423,0,0,1-.053.053.4.4,0,0,1-.111.048.27.27,0,0,1-.037.016h0a3.808,3.808,0,0,1-.166,0h0a.387.387,0,0,1-.056-.024.432.432,0,0,1-.091-.039.513.513,0,0,1-.063-.062.469.469,0,0,1-.05-.053.452.452,0,0,1-.048-.113c0-.013-.013-.023-.015-.036v-.006l-2.012-9.8a5.8,5.8,0,0,0-3.819,1.09,1.39,1.39,0,0,0-.427,1.016v8.462a.419.419,0,0,1-.417.423A.419.419,0,0,1,0,20.731V12.269a2.232,2.232,0,0,1,.671-1.615C1.526,9.789,3.2,9.313,5.388,9.313a.439.439,0,0,1,.437.337L7.5,17.813,9.175,9.65a.429.429,0,0,1,.435-.337c2.19,0,3.865.475,4.718,1.341A2.233,2.233,0,0,1,15,12.269v8.462a.417.417,0,1,1-.833,0ZM7.083,13.962V10.883a.833.833,0,1,1,.833,0v3.079a.417.417,0,1,1-.833,0Zm8.751-7.193V5.077a.419.419,0,0,1,.416-.423,1.4,1.4,0,0,0,1.272-.98.415.415,0,0,1,.79,0c.313.953,2.087.98,2.105.98a.42.42,0,0,1,.417.423V6.769c0,1.413-.95,3.385-2.5,3.385S15.834,8.182,15.834,6.769Zm.833-1.32v1.32c0,1.15.743,2.539,1.666,2.539S20,7.919,20,6.769v-1.3a3.485,3.485,0,0,1-2.051-.836A2.265,2.265,0,0,1,16.667,5.449Zm5,3.892-.417-5.5a2.8,2.8,0,0,0-2.5-2.148h-.833a2.85,2.85,0,0,0-2.5,2.155L15,9.34a.417.417,0,1,1-.831-.065l.417-5.5A3.648,3.648,0,0,1,17.916.846h.833a3.658,3.658,0,0,1,3.333,2.93l.417,5.5a.422.422,0,0,1-.383.455h-.032A.42.42,0,0,1,21.668,9.34ZM4.627,6.535a5.1,5.1,0,0,1-.445-1.562.849.849,0,0,1-.432-.742V3.385a.848.848,0,0,1,.417-.733V2.539A2.521,2.521,0,0,1,6.666,0H8.333a2.522,2.522,0,0,1,2.5,2.539v.113a.848.848,0,0,1,.417.733v.846a.848.848,0,0,1-.433.742,5.046,5.046,0,0,1-.445,1.562A2.868,2.868,0,0,1,7.5,8.462,2.868,2.868,0,0,1,4.627,6.535Zm.373-4v.423a.42.42,0,0,1-.417.423v.846A.419.419,0,0,1,5,4.654a4.023,4.023,0,0,0,.373,1.5A2.036,2.036,0,0,0,7.5,7.615,2.037,2.037,0,0,0,9.627,6.157,4.017,4.017,0,0,0,10,4.654a.419.419,0,0,1,.417-.423V3.385A.42.42,0,0,1,10,2.962V2.539A1.682,1.682,0,0,0,8.333.846H6.666A1.681,1.681,0,0,0,5,2.539ZM8.333,4.231a.423.423,0,0,1,0-.846H8.75a.423.423,0,0,1,0,.846Zm-2.084,0a.423.423,0,0,1,0-.846h.417a.423.423,0,0,1,0,.846Z"
              fill="#c11717"/>
    </g>
</svg>
