<svg xmlns="http://www.w3.org/2000/svg" xmlns:xlink="http://www.w3.org/1999/xlink" viewBox="0 0 23 25">
    <g>
        <path d="M1.254,25A1.263,1.263,0,0,1,0,23.731V20.909a2.949,2.949,0,0,1,2.567-2.894l3.906-.988a.392.392,0,0,1,.049-.061l1.163-1.177V14.661c-.1-.1-.192-.2-.284-.311A8.079,8.079,0,0,1,5.563,9.54l-.011-.218c-.013-.245-.024-.476-.047-.708L5.12,4.72A4.334,4.334,0,0,1,6.2,1.412,4.229,4.229,0,0,1,9.342,0h4.316A4.229,4.229,0,0,1,16.8,1.412,4.333,4.333,0,0,1,17.879,4.72l-.385,3.9c-.022.231-.034.46-.046.7,0,.074-.007.147-.012.22A8.084,8.084,0,0,1,15.6,14.351c-.093.108-.187.211-.284.311v1.127l1.164,1.177a.461.461,0,0,1,.049.063l3.9.986A2.949,2.949,0,0,1,23,20.909v2.822A1.264,1.264,0,0,1,21.746,25Zm17.9-3V24.19h2.588a.457.457,0,0,0,.454-.459V20.909c0-1.07-.66-1.78-1.96-2.109l-3.9-.984c-.23.422-.709,1.293-1.709,3.112a.82.82,0,0,1-1.181.288l-.274-.184v.107a1.273,1.273,0,0,1-.409.937l.356,2.114h5.23V22a.4.4,0,1,1,.8,0ZM10.684,24.19h1.632l-.3-1.786c-.029,0-.059,0-.088,0h-.854c-.03,0-.059,0-.088,0ZM4.643,22V24.19H9.872l.356-2.114a1.273,1.273,0,0,1-.409-.937v-.107l-.274.184a.822.822,0,0,1-.461.141.821.821,0,0,1-.72-.428l-1.71-3.114L2.761,18.8C1.46,19.129.8,19.839.8,20.909v2.822a.457.457,0,0,0,.454.459H3.842V22a.4.4,0,1,1,.8,0Zm5.976-1.511v.647a.457.457,0,0,0,.454.459h.854a.457.457,0,0,0,.454-.459v-.647L11.5,19.9Zm1.509-1.144L13,19.94h0l.894.6a.027.027,0,0,0,.022,0,.025.025,0,0,0,.015-.012c.878-1.6,1.5-2.73,1.764-3.213l-.785-.794ZM7.3,17.322c.266.483.887,1.616,1.765,3.213a.022.022,0,0,0,.014.012.028.028,0,0,0,.023,0l.894-.6h0l.876-.591-2.787-2.82Zm1.185-1.534L11.5,18.839l3.015-3.051v-.432a5.024,5.024,0,0,1-6.03,0ZM6.344,9.131c0,.05.005.1.007.149,0,.072.007.143.012.215.184,3.395,2.441,6.055,5.137,6.055s4.953-2.66,5.137-6.055l.011-.217.008-.158a11.908,11.908,0,0,0-1.447-3.438c-1.74.747-6.263.754-7.371.744A9.483,9.483,0,0,0,6.344,9.131ZM6.79,1.956A3.519,3.519,0,0,0,5.917,4.64L6.2,7.474A8.749,8.749,0,0,1,7.359,5.75a.4.4,0,0,1,.3-.134c1.717.025,6.4-.068,7.453-.794a.4.4,0,0,1,.549.094A11.685,11.685,0,0,1,16.839,7.1l.244-2.465a3.516,3.516,0,0,0-.873-2.684A3.429,3.429,0,0,0,13.658.81H9.342A3.431,3.431,0,0,0,6.79,1.956Z"
              fill="#c11717"/>
    </g>
</svg>
