<svg xmlns="http://www.w3.org/2000/svg" xmlns:xlink="http://www.w3.org/1999/xlink" viewBox="0 0 20 25">
    <g>
        <path d="M1.281,25A1.276,1.276,0,0,1,0,23.731V21A3,3,0,0,1,2.291,18.1l1.967-.487c-.237-.094-.491-.2-.745-.31-1.545-.68-2.205-1.211-2.205-1.774,0-5.729.761-9.725,2.327-12.215A6.944,6.944,0,0,1,10,0a6.943,6.943,0,0,1,6.366,3.309c1.566,2.49,2.326,6.485,2.326,12.215,0,.563-.66,1.093-2.2,1.774-.255.112-.509.217-.745.31l1.967.487A3,3,0,0,1,20,21v2.728A1.276,1.276,0,0,1,18.719,25Zm15.232-2.8V24.19h2.207a.462.462,0,0,0,.463-.459V21a2.188,2.188,0,0,0-1.672-2.122l-2.618-.648a10.767,10.767,0,0,1-4.766,3.723.411.411,0,0,1-.252,0,10.767,10.767,0,0,1-4.766-3.723l-2.618.648A2.188,2.188,0,0,0,.817,21v2.728a.462.462,0,0,0,.464.459H3.488V22.2a.409.409,0,0,1,.818,0V24.19H15.7V22.2a.409.409,0,0,1,.817,0ZM7.793,16.24a1.7,1.7,0,0,1-1.3,1.651l-.514.127A10.283,10.283,0,0,0,10,21.144a10.277,10.277,0,0,0,4.021-3.127l-.514-.127a1.7,1.7,0,0,1-1.3-1.651v-.378a5.12,5.12,0,0,1-4.414,0ZM13.882,5.913A10.163,10.163,0,0,0,15.9,9.833a.4.4,0,0,1,.1.316,7.837,7.837,0,0,1-2,4.4,6.166,6.166,0,0,1-.977.843v.85a.892.892,0,0,0,.68.865l.636.158c.267-.092.98-.344,1.706-.657,1.588-.687,1.8-1.044,1.828-1.1,0-5.564-.722-9.415-2.2-11.77A6.1,6.1,0,0,0,10,.81,6.105,6.105,0,0,0,4.328,3.738c-1.481,2.355-2.2,6.206-2.2,11.77.025.053.241.411,1.832,1.1.725.313,1.435.563,1.7.655l.636-.158a.893.893,0,0,0,.681-.865v-.851A7.687,7.687,0,0,1,3.924,9.044V8.612a.4.4,0,0,1,.123-.29A9.76,9.76,0,0,1,8.861,6.08a23.116,23.116,0,0,1,4.626-.465A.407.407,0,0,1,13.882,5.913ZM4.741,8.787v.257c0,3.588,2.359,6.507,5.259,6.507a4.7,4.7,0,0,0,3.406-1.558,6.98,6.98,0,0,0,1.759-3.77,10.887,10.887,0,0,1-1.984-3.8C11.442,6.455,7.013,6.733,4.741,8.787Z"
              fill="#c11717"/>
    </g>
</svg>
