<svg xmlns="http://www.w3.org/2000/svg" xmlns:xlink="http://www.w3.org/1999/xlink" viewBox="0 0 30 30">
    <g>
        <path fill="#ffffff" d="M.474,15A14.781,14.781,0,0,1,15-.023,14.781,14.781,0,0,1,29.525,15,14.779,14.779,0,0,1,15,30.024,14.779,14.779,0,0,1,.474,15ZM2.9,15A12.31,12.31,0,0,0,15,27.516,12.309,12.309,0,0,0,27.1,15,12.315,12.315,0,0,0,15,2.484,12.317,12.317,0,0,0,2.9,15ZM13,20.223a.752.752,0,0,1-.4-.67V10.483a.754.754,0,0,1,.4-.669.707.707,0,0,1,.758.062l6.032,4.536a.753.753,0,0,1,.3.607.763.763,0,0,1-.3.608l-6.032,4.532a.7.7,0,0,1-.758.065Z"/>
    </g>
</svg>
