<svg xmlns="http://www.w3.org/2000/svg" xmlns:xlink="http://www.w3.org/1999/xlink" viewBox="0 0 56 54">
    <g>
        <path fill="#c20c0c"
              d="M-.007,42.1A11.908,11.908,0,1,1,11.9,54,11.92,11.92,0,0,1-.007,42.1Zm1.985,0A9.923,9.923,0,1,0,11.9,32.178,9.933,9.933,0,0,0,1.977,42.1Zm28.187,7.534a.992.992,0,0,1,1.172-1.6c7.17,5.245,13.519,5.192,18.871-.158l2.517-2.517a2.9,2.9,0,0,0,.516-3.418c-1.438-2.715-6.592-6.145-8.456-7.238a3.04,3.04,0,0,0-2.17-.446,1.337,1.337,0,0,0-.829.677l-.1.15a29.367,29.367,0,0,1-3.038,3.282A8.583,8.583,0,0,1,36.327,39.5a17.5,17.5,0,0,0,5.508,1.546.993.993,0,0,1-.1,1.98c-.033,0-.068,0-.1-.005a20.711,20.711,0,0,1-11.511-5.242.973.973,0,0,1-.105-.157c-.044-.041-.089-.08-.132-.124L19.353,26.974a.834.834,0,0,1-.083-.046c-.227-.188-5.594-4.678-6.31-11.577a.993.993,0,0,1,1.976-.205A14.049,14.049,0,0,0,16.4,19.989a8.178,8.178,0,0,1,1.221-2.645A29.288,29.288,0,0,1,20.9,14.306l.149-.1a1.336,1.336,0,0,0,.679-.83,3.052,3.052,0,0,0-.454-2.178c-.033-.057-3.965-6.714-7.233-8.443a2.9,2.9,0,0,0-3.42.515L8.107,5.783C2.75,11.138,2.633,17.219,7.75,24.371a.993.993,0,0,1-1.615,1.156C.52,17.678.716,10.366,6.705,4.381L9.221,1.865A4.869,4.869,0,0,1,14.973,1C18.74,2.991,22.825,9.909,23,10.2a4.906,4.906,0,0,1,.648,3.7,3.3,3.3,0,0,1-1.535,1.98,33.1,33.1,0,0,0-2.847,2.575c-1.59,2.345-1.4,4.214.625,6.242l11.4,11.4c2.027,2.027,3.894,2.215,6.247.624a32.977,32.977,0,0,0,2.572-2.845,3.3,3.3,0,0,1,1.979-1.533,4.913,4.913,0,0,1,3.694.641c.305.179,7.223,4.262,9.216,8.029a4.861,4.861,0,0,1-.868,5.747l-2.517,2.516c-3.093,3.091-6.538,4.639-10.228,4.639C37.839,53.916,34.069,52.491,30.164,49.633ZM11.9,43.091a.991.991,0,0,1-.992-.992V36.147a.992.992,0,1,1,1.984,0v4.96h4.962a.992.992,0,1,1,0,1.985Z"/>
    </g>
</svg>
