<?xml version="1.0" standalone="no"?>
<!DOCTYPE svg PUBLIC "-//W3C//DTD SVG 20010904//EN"
 "http://www.w3.org/TR/2001/REC-SVG-20010904/DTD/svg10.dtd">
<svg version="1.0" xmlns="http://www.w3.org/2000/svg"
 width="500.000000pt" height="500.000000pt" viewBox="0 0 500.000000 500.000000"
 preserveAspectRatio="xMidYMid meet">
<metadata>
Created by potrace 1.11, written by Peter Selinger 2001-2013
</metadata>
<g transform="translate(0.000000,500.000000) scale(0.100000,-0.100000)"
fill="#000000" stroke="none">
<path d="M3775 4709 c-77 -45 -143 -95 -194 -149 -40 -42 -207 -289 -226 -333
-12 -30 -11 -34 27 -82 l40 -50 -6 -110 c-3 -60 -20 -198 -36 -305 -42 -266
-56 -366 -69 -495 -11 -103 -67 -309 -93 -342 -6 -7 -26 -15 -47 -19 -20 -3
-74 -17 -120 -30 -97 -28 -170 -30 -261 -8 -75 18 -167 20 -335 5 -66 -6 -163
-11 -215 -11 -78 0 -111 -5 -185 -30 -58 -19 -128 -33 -195 -39 -160 -14 -175
4 -134 172 38 157 69 337 114 657 59 424 94 617 140 769 44 146 50 218 25 278
-21 50 -42 72 -90 94 -58 27 -97 24 -218 -18 -94 -33 -110 -42 -133 -74 -14
-20 -42 -53 -63 -72 -38 -35 -38 -36 -57 -168 -17 -123 -21 -207 -14 -329 1
-25 -10 -90 -24 -145 -37 -147 -54 -268 -66 -470 -17 -295 -30 -412 -61 -570
-53 -265 -64 -296 -133 -389 -106 -141 -108 -201 -16 -396 82 -176 88 -211 99
-610 15 -496 44 -675 120 -744 43 -39 197 -1 280 70 43 36 227 316 294 447 44
85 49 100 39 122 -20 43 -51 32 -124 -44 -96 -100 -135 -101 -165 -3 -16 50
-18 99 -18 382 0 235 4 337 13 368 27 91 261 238 452 283 69 17 107 32 139 56
117 88 220 109 394 79 52 -9 117 -16 145 -16 46 0 57 5 112 50 l62 49 37 -18
c33 -17 40 -18 71 -5 56 24 64 14 57 -69 -3 -39 -29 -193 -57 -342 -57 -302
-137 -757 -171 -970 -13 -85 -23 -197 -24 -285 -3 -119 -8 -161 -28 -235 -14
-49 -22 -94 -19 -100 4 -5 9 -58 12 -116 6 -126 19 -149 82 -149 77 0 154 105
212 289 14 45 54 198 87 340 126 537 230 942 283 1106 59 185 94 348 126 581
19 140 64 351 90 418 6 16 31 130 56 255 24 124 56 268 71 319 l26 94 -17 98
c-14 78 -15 110 -7 157 25 140 72 494 77 587 10 154 -20 256 -74 256 -10 0
-49 -18 -87 -41z"/>
</g>
</svg>
