<svg xmlns="http://www.w3.org/2000/svg" xmlns:xlink="http://www.w3.org/1999/xlink" viewBox="0 0 123 125">
  <g>
    <path d="M12.409,125A12.427,12.427,0,0,1,0,112.586V25.7A12.424,12.424,0,0,1,12.409,13.29H25.337V6.033A6.029,6.029,0,0,1,31.364,0h.958a6.03,6.03,0,0,1,6.027,6.032V13.29H84.5V6.033A6.029,6.029,0,0,1,90.527,0h.957a6.03,6.03,0,0,1,6.028,6.032V13.29h13.08A12.423,12.423,0,0,1,123,25.7v86.884A12.426,12.426,0,0,1,110.591,125Zm1.619-14.031h94.944V43.333H14.028ZM46.895,95.921a4.165,4.165,0,0,1-1.652-4.055l1.917-11.39-8.246-8.09a4.158,4.158,0,0,1,2.3-7.081L52.637,63.61l5.139-10.344a4.156,4.156,0,0,1,7.444,0L70.364,63.61,81.787,65.3a4.157,4.157,0,0,1,2.3,7.081l-8.244,8.089,1.914,11.39a4.154,4.154,0,0,1-6.02,4.377L61.5,90.9,51.26,96.242a4.153,4.153,0,0,1-4.366-.321Z"/>
  </g>
</svg>
