<svg xmlns="http://www.w3.org/2000/svg" xmlns:xlink="http://www.w3.org/1999/xlink" viewBox="0 0 685 800">
  <g>
    <path d="M390.643,800a17.316,17.316,0,0,1-17.326-17.333V757.833a335.888,335.888,0,0,1-36.815,2,362.01,362.01,0,0,1-46.811-3.166v26A17.316,17.316,0,0,1,272.367,800H167.085a17.444,17.444,0,0,1-17.325-16.167v-9c-.833-18.333-6.5-60.666-39.648-94.833-22.989-23.5-39.647-52.5-51.142-77.333A240.621,240.621,0,0,1,38.981,549.5a2.908,2.908,0,0,1-.167-.833A235.614,235.614,0,0,1,53.973,394a240.852,240.852,0,0,0,147.262,50c114.111,0,209.9-79.166,235.553-185.5a75.313,75.313,0,0,1,23.656-39c16.991-14.834,41.647-28,77.462-32.5,15.992-2,26.987,15.5,18.491,29.166-12.162,19.5-22.657,46.667-14.161,76.5a22.476,22.476,0,0,1,.667,4.667c40.48,32.666,70.8,74.832,86.291,122.333h23.488a32.505,32.505,0,0,1,32.319,32V530.5a32,32,0,0,1-31.985,32H630.859c-13.826,45-40.647,85.333-76.963,117.667-.333.333-.667.5-1,.833l-3.5,3c-32.652,29.5-35.65,64-35.816,72.667v26A17.316,17.316,0,0,1,496.258,800ZM494.759,399.166A26.154,26.154,0,1,0,520.913,373,26.1,26.1,0,0,0,494.759,399.166ZM0,201.334C0,90.167,90.122,0,201.235,0S402.471,90.334,402.471,201.5,312.348,402.834,201.235,402.834,0,312.5,0,201.334Zm136.6,59.833c-2,6.667-3.831,13.167-5.664,19.833-2.332,8.833-1.5,11,6.664,14.834,10.828,5.332,22.323,8,34.15,9.832,9.329,1.5,9.5,2,9.662,11.5.166,4.333.166,8.667.166,13,0,5.5,2.665,8.667,8.33,8.833,6.33.167,12.827.167,19.157,0,5.331-.167,8-3,8-8.334,0-6,.334-11.833,0-17.833s2.333-9,8.163-10.667a64.775,64.775,0,0,0,33.65-21.5c24.322-29.5,14.993-72.833-19.49-92-10.994-6-22.489-10.666-33.817-15.332C198.9,170.666,192.572,167.5,187.075,163c-10.994-8.834-8.829-23,4-28.667A29.307,29.307,0,0,1,202.4,132a85.611,85.611,0,0,1,42.646,8.5c6.665,3.166,8.829,2.166,11.162-4.833,2.5-7.333,4.5-14.834,6.663-22.333,1.334-5-.333-8.333-5.163-10.5a108.045,108.045,0,0,0-26.821-8c-12.161-1.834-12.161-2-12.161-14.168,0-17.332,0-17.332-17.324-17.332h-7.5c-8,.333-9.495,1.666-9.662,9.833v11c-.166,10.834-.166,10.668-10.495,14.5-24.988,9-40.48,26.168-42.146,53.5-1.5,24.167,11.162,40.666,30.985,52.5C174.914,212,188.408,216.334,201.4,222a60.8,60.8,0,0,1,14.16,8.333c12.494,10.333,10.161,27.5-4.665,34a46.806,46.806,0,0,1-24.821,3.333,112.442,112.442,0,0,1-37.982-11.333c-2.6-1.363-4.533-2.1-6.055-2.1C139.465,254.23,138.065,256.349,136.6,261.167Z"/>
  </g>
</svg>
