<svg xmlns="http://www.w3.org/2000/svg" xmlns:xlink="http://www.w3.org/1999/xlink" viewBox="0 0 141 115">
  <g>
    <path d="M1.654,1.69A5.015,5.015,0,0,1,5.32.142H88.749A5.014,5.014,0,0,1,92.415,1.69a5.013,5.013,0,0,1,1.548,3.667V21H107a14.158,14.158,0,0,1,8.881,3.666L132.012,40.8a11.091,11.091,0,0,1,1.833,2.444,14.844,14.844,0,0,1,1.141,2.484,13.511,13.511,0,0,1,.529,3.015q.162,1.915.2,2.812t0,3.1q-.04,2.2-.04,2.852v26.07a5.289,5.289,0,0,1,5.214,5.215,6.55,6.55,0,0,1-.325,2.158,3.091,3.091,0,0,1-1.1,1.509q-.773.57-1.344.936a4.493,4.493,0,0,1-1.915.489q-1.344.122-1.833.163t-2.077,0Q130.707,94,130.463,94h-5.214a20.863,20.863,0,0,1-20.857,20.857A20.863,20.863,0,0,1,83.536,94H52.249a20.1,20.1,0,0,1-6.11,14.746,20.089,20.089,0,0,1-14.746,6.111,20.093,20.093,0,0,1-14.746-6.111A20.091,20.091,0,0,1,10.537,94q-.245,0-1.833.041t-2.078,0c-.326-.027-.939-.082-1.833-.163a4.491,4.491,0,0,1-1.915-.489q-.57-.366-1.344-.936a3.088,3.088,0,0,1-1.1-1.509,6.51,6.51,0,0,1-.326-2.158V5.358A5.02,5.02,0,0,1,1.654,1.69Zm95.407,99.643A10.229,10.229,0,1,0,93.964,94,10.019,10.019,0,0,0,97.061,101.333Zm-3.1-49.047H125.25V49.843a2.44,2.44,0,0,0-.733-1.793L108.63,32.163a2.438,2.438,0,0,0-1.793-.733H93.964Zm-69.9,49.047a10.228,10.228,0,0,0,14.666,0,10.23,10.23,0,0,0,0-14.665,10.231,10.231,0,0,0-14.666,0,10.232,10.232,0,0,0,0,14.665Z" transform="translate(0)"/>
  </g>
</svg>
