<svg xmlns="http://www.w3.org/2000/svg" xmlns:xlink="http://www.w3.org/1999/xlink"  viewBox="0 0 549 474" width="20px" height="18px">
  <g>
    <path fill="#818181" d="M.473,456.919a3.589,3.589,0,0,0,.474,1.9c0,.474.474,1.423.474,1.9s.474.949.474,1.9c.474.475.474.949.948,1.9.474.474.474.949.948,1.423s.948.949.948,1.423l1.422,1.423.474.474a.465.465,0,0,1,.474.475,11.3,11.3,0,0,0,5.215,2.847c.474,0,.474,0,.948.474a23.784,23.784,0,0,0,5.689.949H530.511a23.782,23.782,0,0,0,5.689-.949c.474,0,.474,0,.948-.474a51.692,51.692,0,0,0,5.215-2.847.464.464,0,0,0,.474-.475l.474-.474,1.422-1.423c.474-.474.948-.949.948-1.423.474-.474.474-.949.948-1.423s.474-.949.948-1.9c.474-.474.474-.949.474-1.9,0-.474.474-1.423.474-1.9s.474-.949.474-1.9V19.454A19.233,19.233,0,0,0,529.563,0H19.437A19.233,19.233,0,0,0,0,19.454V455.021C.473,455.5.473,455.97.473,456.919Zm60.684-22.3,143.651-171.76,59.736,41.754a19.561,19.561,0,0,0,21.808,0l59.736-41.754,143.651,171.76Zm450.864-34.162-134.169-159.9,133.695-93.471V400.456ZM38.875,38.907H511.547v61.207l-236.1,164.643L38.875,100.114Zm0,108.18L172.57,240.559,38.875,400.456Z"/>
  </g>
</svg>
