<svg xmlns="http://www.w3.org/2000/svg" xmlns:xlink="http://www.w3.org/1999/xlink" viewBox="0 0 731 800">
  <g>
    <path fill="#ffffff" d="M105.332,779.918,92.257,634.775a22.022,22.022,0,0,1,19.939-24l145.288-13.062a22.054,22.054,0,1,1,4.086,43.918l-96.1,8.654A318.673,318.673,0,0,0,678.8,330.122a22.037,22.037,0,0,1,42.818-10.449,362.3,362.3,0,0,1-109.17,354.45c-67.334,60.735-152.97,93.714-243.019,93.714-6.048,0-12.257-.163-18.468-.49-77.629-3.918-150.355-31.837-209.679-79.836l7.844,88.327a22.023,22.023,0,0,1-19.938,24,7.985,7.985,0,0,1-1.961.163A22.015,22.015,0,0,1,105.332,779.918Zm-94.953-299.1A362.641,362.641,0,0,1,381.036,33.143c78.119,3.918,151.172,32,210.5,80.49L588.1,23.346a22.078,22.078,0,0,1,44.126-1.633l5.393,144v2.613a22.007,22.007,0,0,1-21.246,22.041L470.6,195.755h-.818a22.048,22.048,0,0,1-.816-44.081l94.952-3.593C444.119,50.611,267.289,52.244,149.13,159.02A318.346,318.346,0,0,0,53.2,470.367a22.069,22.069,0,0,1-16.179,26.612,19.111,19.111,0,0,1-5.23.653A21.962,21.962,0,0,1,10.379,480.816Z"/>
  </g>
</svg>
