<?xml version="1.0" standalone="no"?>
<!DOCTYPE svg PUBLIC "-//W3C//DTD SVG 20010904//EN"
 "http://www.w3.org/TR/2001/REC-SVG-20010904/DTD/svg10.dtd">
<svg version="1.0" xmlns="http://www.w3.org/2000/svg"
 width="500.000000pt" height="500.000000pt" viewBox="0 0 500.000000 500.000000"
 preserveAspectRatio="xMidYMid meet">
<metadata>
Created by potrace 1.11, written by Peter Selinger 2001-2013
</metadata>
<g transform="translate(0.000000,500.000000) scale(0.100000,-0.100000)"
fill="#000000" stroke="none">
<path d="M1875 4006 c-290 -123 -334 -144 -390 -185 -22 -16 -78 -53 -125 -83
-114 -73 -261 -197 -327 -277 -63 -77 -165 -274 -183 -354 -8 -34 -11 -95 -8
-163 7 -137 30 -204 94 -266 25 -23 66 -78 92 -122 36 -60 67 -96 133 -151
192 -164 401 -420 439 -538 16 -52 7 -81 -47 -138 -37 -39 -44 -54 -40 -75 4
-22 -4 -37 -41 -76 -60 -64 -139 -121 -157 -114 -27 10 -15 25 50 63 69 40 98
81 78 112 -25 40 -54 30 -499 -186 -146 -70 -204 -131 -204 -211 0 -33 6 -45
37 -72 41 -36 121 -77 171 -86 38 -7 164 29 275 80 142 64 319 187 467 324
l66 60 109 11 c118 13 184 25 226 42 l27 11 -38 86 -37 86 -41 -2 c-22 -2 -42
1 -46 6 -3 5 -10 71 -15 147 -14 196 -25 216 -285 518 -333 384 -386 462 -423
611 -20 82 -11 129 40 215 57 96 294 321 338 321 35 0 20 -24 -66 -105 -72
-68 -85 -85 -85 -112 0 -77 73 -82 195 -13 114 66 439 313 454 347 19 39 31
169 21 223 -19 104 -109 128 -255 66z"/>
<path d="M4194 3901 c-79 -51 -124 -99 -194 -203 -76 -113 -78 -121 -44 -161
26 -31 26 -35 20 -117 -3 -47 -15 -141 -26 -210 -12 -69 -29 -190 -40 -270
-11 -88 -28 -170 -43 -210 -22 -59 -27 -66 -58 -71 -19 -4 -64 -15 -101 -24
-64 -17 -73 -17 -152 -1 -68 14 -99 15 -172 6 -49 -5 -126 -10 -172 -10 -56 0
-102 -6 -143 -20 -37 -13 -92 -21 -142 -23 l-82 -2 -3 32 c-2 18 8 83 22 145
14 62 44 244 66 403 47 330 49 340 92 491 36 127 34 170 -11 215 -41 40 -86
45 -168 18 -56 -18 -78 -32 -120 -77 -29 -30 -53 -65 -53 -76 -1 -12 -7 -65
-14 -120 -8 -57 -10 -113 -5 -133 5 -25 0 -64 -17 -135 -23 -94 -30 -154 -54
-468 -12 -150 -60 -387 -87 -430 -10 -15 -33 -49 -50 -75 -45 -67 -44 -113 3
-218 59 -129 64 -160 74 -437 13 -355 36 -471 97 -486 38 -10 112 12 153 45
64 50 240 329 240 380 0 37 -41 26 -90 -24 -51 -52 -72 -56 -97 -18 -15 23
-19 56 -21 222 -2 107 -1 219 3 250 6 50 12 61 55 102 62 58 149 105 244 129
43 11 92 32 117 50 72 52 123 61 236 44 131 -19 135 -19 183 21 35 29 45 33
62 24 11 -6 35 -8 53 -5 54 11 59 61 -49 -534 -68 -381 -90 -532 -83 -592 4
-31 0 -70 -12 -113 -14 -50 -17 -87 -13 -156 4 -82 7 -92 30 -107 23 -15 27
-15 61 4 26 14 44 36 68 84 35 69 46 109 168 615 43 176 93 367 112 425 43
133 67 244 88 395 9 66 31 179 50 250 19 72 43 181 55 243 12 63 30 141 40
175 17 53 18 70 8 131 -9 62 -7 94 17 256 43 288 36 410 -24 410 -10 0 -44
-17 -77 -39z"/>
</g>
</svg>
