<?xml version="1.0" standalone="no"?>
<!DOCTYPE svg PUBLIC "-//W3C//DTD SVG 20010904//EN"
 "http://www.w3.org/TR/2001/REC-SVG-20010904/DTD/svg10.dtd">
<svg version="1.0" xmlns="http://www.w3.org/2000/svg"
 width="700.000000pt" height="700.000000pt" viewBox="0 0 700.000000 700.000000"
 preserveAspectRatio="xMidYMid meet">
<metadata>
Created by potrace 1.11, written by Peter Selinger 2001-2013
</metadata>
<g transform="translate(0.000000,700.000000) scale(0.100000,-0.100000)"
fill="#000000" stroke="none">
<path d="M3278 6995 c-1 -1 -41 -5 -88 -9 -87 -7 -105 -9 -225 -27 -116 -18
-123 -19 -192 -35 -184 -42 -248 -59 -369 -99 -459 -153 -870 -390 -1229 -709
-358 -318 -681 -756 -860 -1166 -25 -58 -50 -114 -55 -125 -45 -93 -150 -427
-176 -560 -2 -11 -10 -54 -19 -95 -29 -147 -36 -200 -52 -370 -15 -164 -8
-592 12 -711 2 -13 6 -46 9 -74 9 -78 22 -152 51 -285 21 -96 91 -339 114
-395 5 -11 30 -75 55 -142 54 -140 181 -394 249 -501 26 -40 47 -76 47 -81 0
-5 3 -11 8 -13 4 -2 33 -41 64 -88 52 -78 214 -285 263 -336 198 -208 293
-297 445 -419 92 -74 370 -265 386 -265 4 0 15 -6 23 -14 29 -25 304 -161 431
-213 269 -110 577 -194 835 -228 22 -2 56 -7 75 -10 186 -26 698 -27 838 0 16
3 104 15 147 20 324 41 869 235 1167 415 37 22 70 40 73 40 3 0 11 5 18 10 7
6 62 43 122 83 253 168 492 376 678 592 33 39 63 72 67 75 4 3 44 55 90 115
151 199 277 405 383 628 26 53 47 99 47 102 0 2 11 28 24 57 57 127 151 421
182 573 17 81 54 301 59 350 4 33 9 71 11 85 9 47 11 525 3 605 -15 165 -21
220 -24 225 -2 3 -6 30 -10 60 -9 75 -69 337 -98 435 -207 677 -589 1255
-1129 1705 -225 187 -582 407 -818 505 -36 14 -80 33 -98 41 -110 50 -419 145
-587 179 -44 9 -89 19 -100 21 -11 2 -38 6 -60 9 -22 3 -51 7 -65 10 -13 2
-52 7 -86 11 -33 3 -74 8 -90 10 -32 5 -540 14 -546 9z m-198 -1769 c1 -159
-1 -291 -4 -293 -5 -5 -152 -42 -169 -43 -8 0 -2 122 9 173 2 12 7 38 10 57
10 68 56 205 101 302 25 54 47 97 49 95 2 -2 4 -133 4 -291z m985 160 c42 -88
96 -256 109 -336 10 -56 19 -200 14 -200 -3 0 -18 4 -34 9 -16 5 -55 17 -86
26 l-58 16 0 289 c0 160 2 290 6 290 3 0 25 -42 49 -94z m-882 -649 c79 -34
130 -104 164 -227 25 -92 24 -455 -2 -589 -2 -10 -6 -42 -10 -72 -3 -30 -8
-61 -10 -69 -2 -8 -7 -44 -10 -80 -13 -141 -50 -196 -150 -225 -48 -14 -83
-16 -189 -12 -122 6 -153 9 -231 22 -134 22 -223 87 -278 203 -55 116 -46 215
35 377 37 74 145 243 175 273 7 7 60 85 118 172 107 161 155 214 216 236 41
15 125 10 172 -9z m903 -20 c84 -43 145 -137 234 -362 28 -71 92 -210 141
-308 93 -185 124 -272 114 -327 -22 -126 -129 -238 -267 -282 -100 -31 -186
-29 -398 7 -169 28 -278 114 -282 221 -1 40 9 307 18 444 18 303 85 502 196
589 55 42 180 51 244 18z m-2060 -963 c-2 -6 -15 -14 -28 -17 -13 -3 -52 -14
-87 -26 l-63 -20 5 83 c4 45 8 89 11 97 3 8 8 32 11 54 9 60 72 241 113 325
l37 75 3 -280 c1 -154 0 -285 -2 -291z m3085 399 c35 -86 76 -237 85 -313 12
-108 12 -151 0 -147 -6 2 -47 16 -91 31 l-80 26 2 272 c1 150 2 280 3 288 1
18 41 -58 81 -157z m-3013 -646 c160 -78 393 -295 530 -490 128 -183 106 -368
-62 -523 -155 -144 -272 -215 -368 -222 -97 -7 -135 29 -237 227 -81 157 -181
426 -206 552 -3 13 -8 35 -11 49 -3 14 -8 77 -10 140 -4 137 13 202 69 257 68
69 169 72 295 10z m3035 -11 c43 -18 81 -61 109 -121 19 -42 23 -69 24 -166 1
-72 -4 -143 -13 -185 -8 -38 -16 -79 -19 -90 -20 -105 -97 -310 -174 -469 -98
-202 -163 -269 -261 -268 -82 1 -207 77 -340 207 -139 136 -204 245 -216 363
-11 104 25 151 174 226 185 94 185 94 433 353 74 77 122 118 160 137 61 31 78
33 123 13z m-1508 -481 c27 -14 71 -44 96 -69 44 -42 123 -152 163 -226 40
-76 125 -197 168 -240 24 -25 89 -79 144 -120 188 -141 266 -213 318 -295 82
-127 70 -231 -47 -412 -72 -113 -135 -169 -220 -197 -46 -16 -163 -22 -217
-12 -14 2 -47 7 -73 11 -26 3 -69 10 -95 15 -26 4 -72 11 -102 15 -30 3 -71 8
-90 10 -47 6 -305 6 -355 0 -22 -2 -64 -7 -94 -11 -29 -3 -63 -7 -75 -9 -11
-2 -64 -11 -116 -20 -132 -22 -195 -24 -265 -8 -123 28 -220 124 -317 315 -81
158 -17 295 227 486 44 35 95 75 114 90 140 110 186 165 287 347 85 152 123
210 173 261 100 100 251 128 376 69z"/>
</g>
</svg>
