<svg xmlns="http://www.w3.org/2000/svg" viewBox="0 0 578 578">
    <g>
        <path fill="#ff2727"
              d="M577.778,456.154q1.834,14.082-8.563,24.492l-81.346,80.82A45.81,45.81,0,0,1,473.5,571.875a59.365,59.365,0,0,1-17.43,5.51q-.612,0-3.671.308t-7.949.306q-11.622,0-37.616-3.979t-63.607-19.593Q305.6,538.813,257.9,507.587T156.37,421.867q-42.813-42.248-70.948-80.822t-45.26-71.332q-17.126-32.757-25.688-59.392T2.854,164.4Q-.2,145.113.407,134.091t.611-12.246a59.576,59.576,0,0,1,5.5-17.45,45.887,45.887,0,0,1,10.4-14.389L98.266,8.572Q106.829,0,117.838,0a22.8,22.8,0,0,1,14.067,4.592A42.546,42.546,0,0,1,142.3,15.92l65.443,124.294a29.822,29.822,0,0,1,3.058,21.43,38.172,38.172,0,0,1-10.4,19.593l-29.969,30a10.205,10.205,0,0,0-2.141,3.98,15.113,15.113,0,0,0-.917,4.592q2.446,12.858,11.009,29.39,7.339,14.695,22.63,35.819T244.444,333.7q27.523,28.166,48.93,43.779t35.78,22.961q14.373,7.347,22.019,8.876l7.644,1.531a14.53,14.53,0,0,0,3.977-.918,10.2,10.2,0,0,0,3.975-2.143L401.63,372.27a37.436,37.436,0,0,1,25.688-9.8q10.4,0,16.514,3.674h.612l118.041,69.8Q575.331,443.91,577.778,456.154Z"/>
    </g>
</svg>
