<svg xmlns="http://www.w3.org/2000/svg" viewBox="0 0 479 612">
    <g>
        <path d="M285.969,597.4l-.863-.622c-.359-.273-12.105-9-32.077-9-12.5,0-25.586,3.458-38.913,10.276-4.045,2.478-22.706,13-46.536,13-19.544,0-37.363-6.78-52.959-20.155C89.926,569.719,8.715,490.353.664,358.14-3,297.938,16.591,240.311,54.408,200.04c34.306-36.54,79.766-52.926,123.2-44.223a216.149,216.149,0,0,1,64.84,23.564c16.752-8.4,58.351-26.624,103.647-26.624,54.112,0,96.178,26.284,121.638,76l5.771,11.276-10.34,7.3c-.543.378-56.119,40.415-55.916,88.835.106,26.4,17.215,51.7,50.872,75.208a48.867,48.867,0,0,1,20.048,31.479c10.834,39.639-63.887,136.6-108.66,161.761l-1.1.563A89.648,89.648,0,0,1,333.6,612,82.962,82.962,0,0,1,285.969,597.4Zm16.682-23.885a54.432,54.432,0,0,0,30.951,9.315,64.26,64.26,0,0,0,22.386-4.041c46.14-26.5,98.747-111.622,94.189-128.046l-.572-2.352a19.726,19.726,0,0,0-8.118-13.092c-41.94-29.285-63.249-62.641-63.338-99.151-.126-48.945,38.661-88.069,57.857-104.435-20.524-33.043-50.719-49.789-89.912-49.789-49.883,0-96.381,26.546-96.847,26.818l-7.653,4.428-7.459-4.769c-28.68-18.357-61.387-23.855-61.717-23.9a92.67,92.67,0,0,0-18.3-1.866c-28,0-55.888,13.278-78.516,37.385-31.87,33.937-49.018,84.9-45.9,136.342,7.352,120.764,81.337,193.086,103.84,212.378,10.174,8.722,21.629,13.152,34.034,13.152a64.688,64.688,0,0,0,31.406-8.733l1.281-.758c17.663-9.149,35.411-13.782,52.763-13.782C281.236,558.617,298.956,570.729,302.651,573.516Zm-71.532-420.8a14.574,14.574,0,0,1-5.616-11.132C225.387,137.518,224.2,41.33,343.95.428a14.537,14.537,0,0,1,19.156,12.151c.137,1.127,11.222,112.865-119.825,142.83a14.5,14.5,0,0,1-12.163-2.69Zm26.188-31.626c57.3-20.2,72.337-60.58,76.012-85.086C280.3,60.513,262.962,98.161,257.307,121.093Z"/>
    </g>
</svg>
