<svg xmlns="http://www.w3.org/2000/svg" xmlns:xlink="http://www.w3.org/1999/xlink" viewBox="0 0 23 25">
    <g>
        <path d="M1.254,25A1.263,1.263,0,0,1,0,23.731V20.909a2.949,2.949,0,0,1,2.567-2.894l3.906-.988a.392.392,0,0,1,.049-.061l1.281-1.3a.4.4,0,0,1,.207-.111A8.2,8.2,0,0,1,11.5,0a8.2,8.2,0,0,1,3.49,15.558.4.4,0,0,1,.208.111l1.281,1.3a.461.461,0,0,1,.049.063l3.9.986A2.95,2.95,0,0,1,23,20.909v2.822A1.264,1.264,0,0,1,21.746,25Zm17.9-3V24.19h2.588a.457.457,0,0,0,.454-.459V20.909c0-1.071-.66-1.78-1.96-2.109l-3.9-.984c-.23.422-.709,1.293-1.709,3.112a.82.82,0,0,1-1.181.288l-.274-.184v.107a1.273,1.273,0,0,1-.409.937l.356,2.114h5.23V22a.4.4,0,1,1,.8,0ZM10.684,24.19h1.632l-.3-1.786c-.029,0-.059,0-.088,0h-.854c-.03,0-.059,0-.088,0ZM4.643,22V24.19H9.872l.356-2.114a1.273,1.273,0,0,1-.409-.937v-.107l-.274.184a.82.82,0,0,1-1.181-.288c-1-1.821-1.479-2.692-1.71-3.113L2.761,18.8C1.46,19.129.8,19.839.8,20.909v2.822a.457.457,0,0,0,.454.459H3.842V22a.4.4,0,1,1,.8,0Zm5.976-1.511v.647a.457.457,0,0,0,.454.459h.854a.457.457,0,0,0,.454-.459v-.647L11.5,19.9Zm1.509-1.144.875.59,0,0,.894.6a.027.027,0,0,0,.022,0,.025.025,0,0,0,.015-.012c.7-1.283,1.457-2.652,1.764-3.213l-.784-.794ZM7.3,17.322c.307.561,1.059,1.931,1.765,3.213a.022.022,0,0,0,.014.012.028.028,0,0,0,.023,0l.893-.6,0,0,.876-.59-2.787-2.82Zm4.2,1.517,3.045-3.081a7.988,7.988,0,0,1-6.089,0ZM4.216,8.18A7.285,7.285,0,1,0,11.5.81,7.336,7.336,0,0,0,4.216,8.18Zm.907,0A6.377,6.377,0,1,1,11.5,14.633,6.422,6.422,0,0,1,5.123,8.18ZM11.9,12.932v.877a5.619,5.619,0,0,0,5.162-5.224H16.2a.405.405,0,0,1,0-.81h.866A5.619,5.619,0,0,0,11.9,2.552v.877a.4.4,0,1,1-.8,0V2.552A5.618,5.618,0,0,0,5.938,7.775H6.8a.405.405,0,0,1,0,.81H5.938A5.617,5.617,0,0,0,11.1,13.808v-.876a.4.4,0,1,1,.8,0ZM9.677,10.024a.409.409,0,0,1,0-.572l.7-.707a1.23,1.23,0,0,1-.065-.159h-.52a.405.405,0,0,1,0-.81h.52A1.257,1.257,0,0,1,11.5,6.911a1.237,1.237,0,0,1,.557.133L14.206,4.87a.4.4,0,0,1,.566,0,.41.41,0,0,1,0,.573L12.623,7.617a1.272,1.272,0,0,1,.065.158h1.8a.405.405,0,0,1,0,.81h-1.8a1.256,1.256,0,0,1-1.188.864,1.234,1.234,0,0,1-.557-.132l-.7.707a.4.4,0,0,1-.566,0Zm1.37-1.844a.454.454,0,1,0,.454-.459A.457.457,0,0,0,11.047,8.18Z"
              fill="#c11717"/>
    </g>
</svg>
