<svg xmlns="http://www.w3.org/2000/svg" xmlns:xlink="http://www.w3.org/1999/xlink" viewBox="0 0 606 800">
    <g>
        <path fill="#c20c0c"
              d="M40.572,800A40.635,40.635,0,0,1,0,759.4V68.251a40.635,40.635,0,0,1,40.573-40.6h42.3v-.865A26.8,26.8,0,0,1,109.632,0H192.5a26.8,26.8,0,0,1,26.761,26.781v.865H565.428A40.634,40.634,0,0,1,606,68.251V759.4A40.634,40.634,0,0,1,565.428,800ZM25.9,68.251V759.4a14.7,14.7,0,0,0,14.675,14.686H565.428A14.7,14.7,0,0,0,580.1,759.4h0V68.251A14.7,14.7,0,0,0,565.43,53.563H219.266V206.48a12.945,12.945,0,0,1-18.739,11.59L151.07,193.322,101.613,218.07a12.95,12.95,0,0,1-18.742-11.59V53.563h-42.3A14.7,14.7,0,0,0,25.9,68.251Zm130.962,98.993,36.509,18.268V26.781a.865.865,0,0,0-.864-.863H109.632a.865.865,0,0,0-.863.863v158.73l36.508-18.268a12.939,12.939,0,0,1,11.581,0Zm77.082,466.881a12.959,12.959,0,0,1,0-25.917h28.487V510.583a40.665,40.665,0,0,1,27.624-38.472V357.667H191.641V369.6L245.774,491.5c.01.022.015.045.025.067.128.292.238.592.346.9.04.112.085.221.121.332.081.251.144.508.209.763.043.171.095.342.132.514s.06.353.089.53c.043.257.09.515.118.774.012.12.015.242.024.363.025.319.046.633.048.949,0,.024,0,.049,0,.074,0,30.012-30.594,54.428-68.2,54.428s-68.2-24.416-68.2-54.428c0-.023,0-.048,0-.074,0-.316.022-.632.049-.949.009-.121.012-.243.024-.363.028-.259.074-.517.118-.774.031-.176.053-.356.089-.53s.086-.343.131-.514c.066-.257.128-.512.209-.763.036-.112.083-.223.122-.333.105-.3.216-.6.344-.894.009-.022.015-.047.026-.069L165.743,369.6V357.667H151.068a12.959,12.959,0,0,1,0-25.917H290.051V314.067a40.572,40.572,0,1,1,25.9,0V331.75H454.932a12.959,12.959,0,0,1,0,25.917H440.257V369.6L494.389,491.5c.011.022.015.045.026.067.128.292.238.592.346.9.04.112.084.221.121.332.081.251.142.508.209.763.042.171.095.342.13.514s.06.353.09.53c.042.257.089.515.117.774.013.12.015.242.024.363.026.317.047.633.049.949,0,.024,0,.049,0,.074,0,30.012-30.593,54.428-68.2,54.428s-68.2-24.416-68.2-54.428c0-.023,0-.048,0-.074,0-.316.022-.632.049-.949.008-.121.013-.243.024-.363.027-.259.074-.517.117-.774.031-.176.053-.356.09-.53s.086-.343.131-.514c.066-.257.128-.512.209-.763.036-.112.083-.223.123-.333.105-.3.215-.6.343-.894.008-.022.016-.047.025-.069L414.359,369.6V357.667h-98.41V472.11a40.665,40.665,0,0,1,27.624,38.472v97.625H372.06a12.959,12.959,0,0,1,0,25.917Zm54.384-123.542v97.625h29.35V510.583a14.675,14.675,0,1,0-29.35,0ZM427.308,525.27c16.06,0,30.372-6.4,37.507-15.551H389.8C396.936,518.866,411.249,525.27,427.308,525.27Zm-248.617,0c16.061,0,30.373-6.4,37.507-15.551H141.184C148.319,518.866,162.632,525.27,178.691,525.27ZM391.983,483.8h70.647l-35.322-79.539Zm-248.616,0h70.647l-35.323-79.539ZM288.325,275.594A14.675,14.675,0,1,0,303,260.907,14.7,14.7,0,0,0,288.325,275.594Z"/>
    </g>
</svg>
