<svg xmlns="http://www.w3.org/2000/svg" xmlns:xlink="http://www.w3.org/1999/xlink" viewBox="0 0 745 800">
    <g>
        <path fill="#c20c0c"
              d="M40.621,800A40.659,40.659,0,0,1,0,759.4V682.89A109.566,109.566,0,0,1,83.139,576.449l50.568-12.638a12.958,12.958,0,0,1,8.829-11.382l79.2-26.388A40.364,40.364,0,0,1,233.5,513.914l19.68-13.115c-44.689-42.915-73.417-109.325-73.417-183.737,0-2.4.062-4.793.121-7.185a12.922,12.922,0,0,1-1.565-3.934c-11.672-54.7-18.431-126.279-22.044-176.692a82.021,82.021,0,0,1,81.91-87.784h4.83C285.677,4.126,347.4,0,372.5,0a709.441,709.441,0,0,1,97.2,6.9,122.74,122.74,0,0,1,78.612,44.327A124.027,124.027,0,0,1,575.862,137.2c-4.745,77.991-13.249,142.9-13.334,143.546a13.052,13.052,0,0,1-.618,2.595,192.862,192.862,0,0,1,3.322,33.725c0,74.412-28.728,140.822-73.416,183.737l19.678,13.115a40.353,40.353,0,0,1,11.771,12.127l79.2,26.388a12.954,12.954,0,0,1,8.829,11.38l50.569,12.638A109.571,109.571,0,0,1,745,682.89V759.4A40.659,40.659,0,0,1,704.378,800Zm579.924-68.252v42.333h83.833A14.706,14.706,0,0,0,719.071,759.4h0V682.888a83.689,83.689,0,0,0-63.5-81.3L604.155,588.74l-11.906,36.447a12.958,12.958,0,0,1-9.18,8.549L545.6,643.1l17.451,26.169a12.952,12.952,0,0,1,.773,13.056L517.2,774.082h77.412V731.749a12.964,12.964,0,0,1,25.928,0ZM525.306,565.835c-9.734,19.474-24.282,48.577-36.4,72.812l-20.127,40.212c-.109.216-.216.429-.324.642a12.83,12.83,0,0,1-.447,1.491c-12.468,33.364-13.6,74.269-13.367,93.09h33.485l49.154-96.737-23.453-35.168a12.96,12.96,0,0,1,7.646-19.762l48.36-12.083,12.212-37.39L528.88,555.23A40.359,40.359,0,0,1,525.306,565.835Zm-112.186,96.8a26.756,26.756,0,0,1-12.6,22.675L411.8,774.082h16.887c-.248-19.318.911-58.425,12.128-93.711a264.984,264.984,0,0,0-27.694-22.626ZM359.339,774.082h26.322l-10.755-84.665h-4.812Zm-54.854-93.99c11.3,35.358,12.467,74.621,12.218,93.99h16.5l11.277-88.772a26.76,26.76,0,0,1-12.6-22.675v-4.891A264.823,264.823,0,0,0,304.484,680.092ZM162.961,572.944l12.214,37.39,48.359,12.083a12.956,12.956,0,0,1,7.644,19.76l-23.452,35.166,49.158,96.739h33.862c.227-18.771-.923-59.49-13.215-92.689-.441-.815-.868-1.662-1.3-2.534L256.1,638.647c-12.123-24.235-26.67-53.338-36.4-72.812a40.4,40.4,0,0,1-3.575-10.606Zm-12.578,158.8v42.333H227.8l-46.628-91.755a12.96,12.96,0,0,1,.773-13.057L199.4,643.1l-37.466-9.364a12.96,12.96,0,0,1-9.18-8.549l-11.906-36.445-51.417,12.85a83.685,83.685,0,0,0-63.5,81.3V759.4a14.706,14.706,0,0,0,14.693,14.686h83.834V731.749a12.964,12.964,0,0,1,25.928,0Zm207.425-89.955v20.841a.864.864,0,0,0,.863.864h27.658a.864.864,0,0,0,.863-.864v-20.84a159.868,159.868,0,0,0-14.694-6.826A160.05,160.05,0,0,0,357.808,641.794Zm37.432-25.032c13.9,6.886,34.163,18.877,56.4,38.421,9.178-18.334,26.366-52.706,50.472-100.932a14.7,14.7,0,0,0-5-18.772l-12.333-8.22ZM247.888,535.478a14.7,14.7,0,0,0-5,18.772c23.6,47.208,41.114,82.239,50.47,100.932,22.234-19.544,42.5-31.535,56.4-38.421l-89.538-89.5ZM372.5,602.841l65.687-65.664a161,161,0,0,1-131.376,0Zm0-77.571c84.706,0,154.866-79.222,165.427-181.425H496.09v.863a12.964,12.964,0,0,1-25.928,0V316.2H454.605v14.687a12.964,12.964,0,0,1-25.928,0V316.2H413.12v28.509a12.964,12.964,0,0,1-25.928,0,14.692,14.692,0,0,0-29.384,0,12.964,12.964,0,0,1-25.928,0V316.2H316.322v14.687a12.964,12.964,0,0,1-25.928,0V316.2H274.837v28.509a12.964,12.964,0,0,1-25.928,0v-.863H207.072C217.633,446.048,287.793,525.27,372.5,525.27ZM483.126,290.281A12.962,12.962,0,0,1,496.09,303.24v14.687h42.349c.288,0,.571.024.856.043,0-.3.008-.6.008-.907,0-32.418-13.464-72.449-23.422-97.619l-8.025,0c-96.726.088-188.264.165-269.869-25.222C216.833,230.088,205.7,272.337,205.7,317.063c0,.3.007.6.009.907.285-.019.567-.043.856-.043h42.349V303.24a12.962,12.962,0,0,1,12.964-12.959h82.969a12.962,12.962,0,0,1,12.965,12.959v3.623a40.493,40.493,0,0,1,29.384,0V303.24a12.962,12.962,0,0,1,12.965-12.959ZM197.008,85.3a55.353,55.353,0,0,0-14.865,42.1c2.176,30.374,5.505,68.51,10.37,105.74a250.973,250.973,0,0,1,28.966-61.46,12.963,12.963,0,0,1,15.033-5.187c79.978,27.2,172.93,27.129,271.322,27.038l16.777-.009a12.967,12.967,0,0,1,11.97,7.984c2.212,5.321,4.5,11.073,6.765,17.1,2.292-23.434,4.759-52.162,6.635-82.981a98.179,98.179,0,0,0-21.8-68.062,96.885,96.885,0,0,0-62.052-34.995,683.347,683.347,0,0,0-93.628-6.65c-22.763,0-79.589,3.692-115.515,37.894a12.961,12.961,0,0,1-8.941,3.575H238.19A55.708,55.708,0,0,0,197.008,85.3ZM309.894,451.8a12.959,12.959,0,1,1,14.583-21.426c11.008,7.486,28.958,11.957,48.02,11.957s37.013-4.47,48.021-11.957A12.96,12.96,0,1,1,435.105,451.8c-15.364,10.453-38.184,16.448-62.6,16.448S325.258,462.255,309.894,451.8Z"/>
    </g>
</svg>
