<svg xmlns="http://www.w3.org/2000/svg" xmlns:xlink="http://www.w3.org/1999/xlink" viewBox="0 0 537 612">
    <g>
        <path fill="#c20c0c"
              d="M31.628,612A31.653,31.653,0,0,1,0,580.391V537.943a53.253,53.253,0,0,1,39.173-51.258l83.053-22.639,17.743-26.6V421.372c-26.195-23.5-42.955-59.076-43.063-98.846l-5.746-91.9a85.43,85.43,0,0,1,85.295-90.737h60.417V31.609A31.654,31.654,0,0,1,268.5,0H505.372A31.654,31.654,0,0,1,537,31.609v236.73a31.654,31.654,0,0,1-31.628,31.609H333.836l-1.412,22.579c-.109,39.771-16.869,75.344-43.063,98.847v16.078l17.743,26.6,83.055,22.639a53.249,53.249,0,0,1,39.172,51.256v42.448A31.654,31.654,0,0,1,397.7,612Zm322.334-53.13v32.953H397.7a11.449,11.449,0,0,0,11.44-11.433V537.943a33.027,33.027,0,0,0-24.3-31.791l-79.681-21.718-31.747,47.592a20.793,20.793,0,0,1-15.3,9.183c-.693.068-1.388.1-2.076.1a20.748,20.748,0,0,1-11.751-3.649,31.705,31.705,0,0,1-8.2,12.156l8.622,42.006h89.065V558.87a10.094,10.094,0,0,1,20.188,0ZM205.231,591.824H224.1l-6.923-33.735c-.831.066-1.665.109-2.512.109s-1.681-.043-2.51-.109ZM95.557,558.87v32.953h89.065l8.622-42.008a31.705,31.705,0,0,1-8.2-12.156,20.748,20.748,0,0,1-11.751,3.649q-1.033,0-2.076-.1a20.793,20.793,0,0,1-15.3-9.183l-31.747-47.592-79.68,21.718a33.032,33.032,0,0,0-24.3,31.793v42.448a11.449,11.449,0,0,0,11.439,11.433H75.369V558.87a10.094,10.094,0,0,1,20.188,0Zm107.669-38.863v6.582a11.44,11.44,0,0,0,22.88,0v-6.582l-11.44-11.433ZM243.338,508.7l12.247,12.241a.674.674,0,0,0,1.037-.1l32.049-48.047L277.1,455.442l-47.48,39.543,13.718,13.71ZM140.662,472.787l32.049,48.047a.674.674,0,0,0,1.036.1L185.99,508.7l.008-.009,13.714-13.706-47.48-39.543Zm74,8.389,53.742-44.757a108.966,108.966,0,0,1-107.483,0ZM143.192,267.635a90.377,90.377,0,0,0-26.09,54.959c.221,59.5,43.9,107.824,97.564,107.824,53.8,0,97.575-48.573,97.575-108.278,0-31.116-17.667-61.392-25.971-73.9C236.856,265.409,161.352,267.405,143.192,267.635ZM337.56,213.587a86.816,86.816,0,0,1,.611,17.037L335.1,279.771H505.372a11.449,11.449,0,0,0,11.44-11.433V31.609a11.449,11.449,0,0,0-11.44-11.433H268.5a11.449,11.449,0,0,0-11.44,11.433V139.992a84.563,84.563,0,0,1,58.1,26.824,85.574,85.574,0,0,1,16.161,24.469L448.7,73.978H419.236a10.088,10.088,0,1,1,0-20.176h53.834A10.091,10.091,0,0,1,483.165,63.89v53.8a10.094,10.094,0,0,1-20.188,0V88.245ZM128.882,180.63a64.584,64.584,0,0,0-17.573,48.737l2.654,42.449c9.068-14.13,18.394-21.616,19.1-22.169a10.088,10.088,0,0,1,6.235-2.156c.957,0,96.247-.257,146.947-20.783a10.1,10.1,0,0,1,11.772,3.174,189.361,189.361,0,0,1,18.109,29.846l1.9-30.362a65.253,65.253,0,0,0-65.147-69.3h-76.42A64.665,64.665,0,0,0,128.882,180.63ZM243.338,508.7Zm222.6-265.506-19.78-19.769-19.78,19.769A10.091,10.091,0,0,1,412.1,228.921l19.779-19.767L412.1,189.388a10.091,10.091,0,0,1,14.274-14.267l19.78,19.768,19.78-19.768a10.091,10.091,0,1,1,14.274,14.268l-19.778,19.768,19.778,19.765a10.091,10.091,0,0,1-14.274,14.268ZM347.5,124.826l-19.78-19.769-19.78,19.769a10.091,10.091,0,0,1-14.274-14.269l19.778-19.767L293.664,71.023a10.091,10.091,0,1,1,14.274-14.267l19.78,19.768L347.5,56.756a10.091,10.091,0,0,1,14.274,14.269L341.994,90.791l19.778,19.769A10.091,10.091,0,0,1,347.5,124.826Z"/>
    </g>
</svg>
