<svg xmlns="http://www.w3.org/2000/svg" xmlns:xlink="http://www.w3.org/1999/xlink" viewBox="0 0 607 612">
    <g>
        <path fill="#c20c0c"
              d="M593.015,612.111c-5.6,0-5.9-3.355-8.1-8.872L548.73,515.194c-18.077-44.527-42.866-70-71.8-75.276L461.579,478l18.172,91.473a14.1,14.1,0,0,1-5.183,12.548l-22.694,18.229a14.1,14.1,0,0,1-8.834,3.109h-8.053a14.1,14.1,0,0,1-8.834-3.109l-22.7-18.229a14.09,14.09,0,0,1-5.183-12.548L415.448,478,401.095,438.92c-28.931,5.273-54.722,31.758-72.827,76.347L293.532,603.31c-2.928,7.213-7.15,10.69-14.371,7.763a14.1,14.1,0,0,1-7.766-18.365l35.736-88.045c15.5-38.177,43-88.618,103.536-91.078a14.206,14.206,0,0,1,1.624-.093h53.444a14.207,14.207,0,0,1,1.624.093c60.545,2.46,88.039,52.9,103.536,91.076l35.214,88.117a14.112,14.112,0,0,1-13.093,19.333ZM422.162,564.888l16.852,15.518,16.848-15.516-13.171-73.476h-7.357Zm12-101.671h9.692l4.513-21.527H429.655ZM13.992,612.111a14.108,14.108,0,0,1-13.063-19.4l35.2-86.739c15.677-38.614,43.8-89.95,106.77-89.95h46.7c33.945,0,61.883,15.089,83.039,44.849.349.49,1.952,2.673,3.9,5.322,6.739,9.183,8.531,11.643,9.121,12.535a14.1,14.1,0,0,1-23.473,15.635c-.758-1.089-5.717-7.846-8.39-11.49-2.1-2.858-3.822-5.208-4.157-5.682-9.758-13.727-20.665-22.979-33.358-28.105l-38.636,52.926a14.105,14.105,0,0,1-22.784,0L116.23,445.09c-22.017,8.923-42.93,34.451-57.96,71.479l-35.2,86.739C20.84,608.787,19.562,612.111,13.992,612.111Zm128.6-167.9,23.664,30.568,23.664-30.568Zm80.55,167.89H73.152a14.1,14.1,0,0,1-14.1-14.1c0-7.786,6.315-11.1,14.1-11.1H223.141c7.788,0,14.1,3.313,14.1,11.1A14.1,14.1,0,0,1,223.141,612.105ZM503.147,509.488a14.1,14.1,0,0,1-14.1-14.1v-1.764a14.1,14.1,0,0,1,28.206,0v1.764A14.1,14.1,0,0,1,503.147,509.488ZM166.254,395.327A71.54,71.54,0,0,1,146.2,255.109c.144-.046.289-.092.437-.132a71.366,71.366,0,0,1,14.456-2.541h0a.293.293,0,0,1,.069-.005.753.753,0,0,1,.081-.005.77.77,0,0,0,.088-.007.559.559,0,0,0,.077-.005.691.691,0,0,0,.09-.005.325.325,0,0,1,.072-.005,1.239,1.239,0,0,0,.162-.011h0c.233-.016.464-.028.7-.039l0,0,.227-.011c.025,0,.1-.007.153-.009a.352.352,0,0,0,.072,0c.03,0,.058,0,.088,0l.069,0,.065,0a.394.394,0,0,1,.078,0,.3.3,0,0,1,.081,0,.227.227,0,0,1,.062,0,.641.641,0,0,0,.164-.007q1.312-.05,2.629-.051c.023,0,.04,0,.062,0h.28c.037,0,.078,0,.111,0s.083,0,.113,0,.085,0,.122,0h.044a71.539,71.539,0,0,1-.6,143.075ZM143.886,281.661C133,289.542,116.9,309.353,116.9,323.789c0,23.9,25.462,49.526,49.355,50.342,29.263,1,45.324-24.968,50.052-43.779C185.669,330.527,154.324,308.866,143.886,281.661Zm24.149-1.177a43.17,43.17,0,0,0,37.809,25.636A43.439,43.439,0,0,0,168.035,280.484ZM439.011,392.065a72.4,72.4,0,1,1,13.974-143.452c.294.049.591.109.885.18a72.4,72.4,0,0,1-14.859,143.272ZM413.958,279.253c-11.568,7.98-22.166,25.326-22.166,40.408,0,.993-1.962,1.983-1.888,2.97,1.751,23.229,25.717,44.238,49.107,44.238,24.384,0,48.222-22.831,48.222-47.207,0-18.138-14.984-36.759-30.653-43.567-5.916,7.617-13.312,17-21.805,21.767a14.1,14.1,0,0,1-19.2-5.393C413.935,289.557,413.447,282.31,413.958,279.253ZM104.945,244.658a14.1,14.1,0,0,1-14.1-14.1V103.527a44.837,44.837,0,0,1,44.8-44.779h50.034a14.1,14.1,0,0,1,14.1,14.1c0,7.786-6.315,9.1-14.1,9.1H135.637c-9.146,0-20.589,12.439-20.589,21.581l1,106.972,22.418-11.879a14.1,14.1,0,0,1,6.895-1.8H267.737c7.789,0,14.1,5.313,14.1,13.1s-6.315,12.1-14.1,12.1h-118.7l-37.2,20.841A14.094,14.094,0,0,1,104.945,244.658Zm334.144-29.2a14.106,14.106,0,0,1-10.424-4.6l-43.413-47.588H271.215a44.835,44.835,0,0,1-44.792-44.777V44.779A44.835,44.835,0,0,1,271.215,0H408.391a44.837,44.837,0,0,1,44.795,44.779V201.357a14.1,14.1,0,0,1-14.1,14.1ZM271.215,23.2c-9.146,0-20.585,12.439-20.585,21.582v76.712c0,9.143,11.441,16.58,20.585,16.58H391.476a14.1,14.1,0,0,1,10.421,4.6l27.085,29.3-1-127.193c0-9.143-10.443-21.582-19.589-21.582ZM182.848,134.24H157.262c-7.788,0-14.1-4.313-14.1-12.1s6.315-10.1,14.1-10.1h25.587c7.788,0,14.1,2.313,14.1,10.1S190.637,134.24,182.848,134.24ZM383.763,78.314H325.551c-7.788,0-14.1-4.313-14.1-12.1s6.315-12.1,14.1-12.1h58.212c7.789,0,14.1,4.313,14.1,12.1S391.552,78.314,383.763,78.314Z"/>
    </g>
</svg>
