<svg xmlns="http://www.w3.org/2000/svg" xmlns:xlink="http://www.w3.org/1999/xlink" viewBox="0 0 612 612">
    <g>
        <path fill="#c20c0c"
              d="M516.444,263.97a63.84,63.84,0,1,0-63.866-63.84A63.921,63.921,0,0,0,516.444,263.97Zm0-101.061c18.322,0,37.227,18.9,37.227,37.221s-18.907,37.221-37.227,37.221-37.236-18.9-37.236-37.221a34.883,34.883,0,0,1,.206-3.759C481.263,179.314,499.37,162.909,516.444,162.909ZM95.559,263.97A63.84,63.84,0,1,0,31.7,200.129,63.924,63.924,0,0,0,95.559,263.97Zm0-101.061c18.326,0,37.232,18.9,37.232,37.221S113.883,236.35,95.559,236.35s-37.231-17.9-37.231-36.221S77.235,162.909,95.559,162.909Zm58.317,337.243a15.312,15.312,0,0,1-15.315,15.31h-48.3v69.907h19.072c8.459,0,15.315,2.854,15.315,11.31a15.312,15.312,0,0,1-15.315,15.31H77.268c-.107,0-.216,0-.325,0s-.218,0-.325,0H44.551a15.311,15.311,0,0,1-15.315-15.31c0-8.456,6.856-11.31,15.315-11.31H63.627V515.462H15.683a15.59,15.59,0,0,1-8.5-2.336A15.3,15.3,0,0,1,0,500.152c0-.151,0-.3.007-.456V354.518a15.312,15.312,0,0,1,15.315-15.31c8.459,0,12.315,6.854,12.315,15.31V488.842H138.561C147.02,488.842,153.876,491.7,153.876,500.152Zm386.56-40.995-103.089.327L398.215,600.5a15.061,15.061,0,0,1-.853,2.436A15.333,15.333,0,0,1,383.39,612c-.163,0-.327,0-.49-.009H343.1a15.312,15.312,0,0,1-15.315-15.31c0-8.456,6.856-7.31,15.315-7.31h32.638l38.2-145.252A15.311,15.311,0,0,1,428.643,432.9l101.478-.316-1-123.942H518.168l-53.146,74.035h15.739c8.459,0,20.315,6.854,20.315,15.31s-6.856,12.31-15.315,12.31H440.6c-.122,0-.247,0-.376,0h-57.47a15.314,15.314,0,0,1-14.424-10.162L334.173,304.7a15.308,15.308,0,0,1,9.272-19.566c7.961-2.839,12.728,1.307,15.573,9.271l31.529,88.271H432.5l65.238-92.185a15.32,15.32,0,0,1,12.5-6.467h30.2a15.312,15.312,0,0,1,15.315,15.31c0,.151,0,.3-.007.456v144.06a15.263,15.263,0,0,1-4.178,10.509s0,0,0,0l-.01.01s-.005.005-.007.007-.007.005-.009.008-.005.005-.008.007l-.01.012-.005,0-.01.01-.007.007-.005.005-.012.012a.154.154,0,0,0-.015.017h0l-.015.015a15.288,15.288,0,0,1-5.823,3.775h0l-.02.007-.015.005a.032.032,0,0,0-.02.007s-.005,0-.009,0A15.139,15.139,0,0,1,540.436,459.157ZM612,500.152a15.321,15.321,0,0,1-15.683,15.31H548.379v68.907h19.071c8.459,0,15.315,3.854,15.315,12.31a15.312,15.312,0,0,1-15.315,15.31H535.389c-.107,0-.216,0-.325,0s-.218,0-.325,0H502.674a15.312,15.312,0,0,1-15.315-15.31c0-8.456,6.856-12.31,15.315-12.31h19.075V515.462h-48.31a15.312,15.312,0,0,1-15.315-15.31c0-8.456,6.856-11.31,15.315-11.31H586.364V354.518c0-8.456,1.856-15.31,10.315-15.31a15.311,15.311,0,0,1,15.315,15.31V499.7C612,499.847,612,500,612,500.152Zm-327.783,96.53a15.312,15.312,0,0,1-15.315,15.31H229.107c-.163.005-.327.009-.49.009a15.315,15.315,0,0,1-14.825-11.493l-39.137-141.02-103.091-.327a15.327,15.327,0,0,1-5.136-.881l-.022-.009-.007,0-.015-.005-.021-.007h0a15.308,15.308,0,0,1-5.823-3.775l-.015-.015h0a.154.154,0,0,1-.015-.017l-.012-.012-.005-.005-.007-.007-.01-.01-.005,0-.01-.012a.029.029,0,0,1-.008-.007s-.005-.005-.008-.008,0-.005-.007-.007l-.01-.01a0,0,0,0,0,0,0,15.263,15.263,0,0,1-4.178-10.509V299.344a15.312,15.312,0,0,1,15.315-15.31h30.2a15.318,15.318,0,0,1,12.5,6.469L179.5,382.688h41.955l31.534-88.273c2.845-7.963,7.612-12.113,15.573-9.269a15.305,15.305,0,0,1,9.272,19.566l-31.164,93.433a15.314,15.314,0,0,1-14.424,10.161H171.778c-.128,0-.255,0-.385,0H126.244c-8.459,0-15.315-4.854-15.315-13.31s6.856-12.31,15.315-12.31H141.98L93.839,314.652h-6.96V428.594l99.478.316a15.321,15.321,0,0,1,14.711,11.217l39.2,145.253H268.9C277.36,585.372,284.216,588.226,284.216,596.682ZM396.076,136.774a15.316,15.316,0,0,0,26.632-10.315V33.52A33.562,33.562,0,0,0,389.177,0h-81.43a33.564,33.564,0,0,0-33.532,33.52V77.272a33.565,33.565,0,0,0,33.532,33.522h64.627Zm-96.23-54.5V28.52a2.94,2.94,0,0,1,2.9-2.9h91.43a2.975,2.975,0,0,1,2.9,2.9V91.949l-1.625-1.783a15.32,15.32,0,0,0-11.316-4.994H302.749A2.942,2.942,0,0,1,299.846,82.272Zm5,61.673a15.312,15.312,0,0,1-15.315,15.31H232.6l-20.5,11.487a15.315,15.315,0,0,1-22.8-13.355v-75.4a33.569,33.569,0,0,1,33.537-33.523h17.989a15.312,15.312,0,0,1,15.315,15.31c0,8.456-10.856,11.31-19.315,11.31H218.829a2.943,2.943,0,0,0-2.907,2.9v57.272l1.188-.667a15.33,15.33,0,0,1,7.488-1.954h64.933C297.99,132.635,304.846,135.488,304.846,143.944Z"/>
    </g>
</svg>
