<?xml version="1.0" standalone="no"?>
<!DOCTYPE svg PUBLIC "-//W3C//DTD SVG 20010904//EN"
 "http://www.w3.org/TR/2001/REC-SVG-20010904/DTD/svg10.dtd">
<svg version="1.0" xmlns="http://www.w3.org/2000/svg"
 width="500.000000pt" height="500.000000pt" viewBox="0 0 500.000000 500.000000"
 preserveAspectRatio="xMidYMid meet">
<metadata>
Created by potrace 1.11, written by Peter Selinger 2001-2013
</metadata>
<g transform="translate(0.000000,500.000000) scale(0.100000,-0.100000)"
fill="#000000" stroke="none">
<path d="M254 3826 c-60 -26 -80 -86 -49 -146 11 -21 32 -35 83 -55 37 -15 75
-36 83 -48 12 -19 14 -177 17 -1062 3 -1193 10 -1094 -88 -1127 -95 -31 -137
-105 -94 -167 35 -50 48 -51 569 -51 l485 0 0 1335 0 1335 -487 0 c-389 -1
-494 -4 -519 -14z"/>
<path d="M1430 3725 l0 -114 38 -7 c282 -48 429 -170 536 -445 21 -52 46 -102
58 -111 30 -26 91 -23 125 6 l28 24 3 381 3 381 -396 0 -395 0 0 -115z"/>
<path d="M2604 3826 c-60 -26 -80 -86 -49 -146 11 -21 32 -35 83 -55 37 -15
75 -36 83 -48 12 -19 14 -177 17 -1062 3 -1193 10 -1094 -88 -1127 -95 -31
-137 -105 -94 -167 35 -50 48 -51 569 -51 l485 0 0 1335 0 1335 -487 0 c-389
-1 -494 -4 -519 -14z"/>
<path d="M3780 3732 l0 -110 33 -7 c17 -4 51 -18 74 -31 47 -27 85 -93 103
-179 7 -33 10 -346 8 -945 l-3 -895 -29 -58 c-30 -63 -59 -86 -138 -113 l-48
-16 0 -104 0 -104 48 0 c160 0 325 45 459 124 331 197 539 548 594 999 17 145
6 454 -21 581 -61 284 -153 475 -309 639 -99 103 -184 167 -306 227 -121 60
-226 88 -362 97 l-103 6 0 -111z"/>
<path d="M1729 3045 c-28 -15 -36 -32 -68 -140 -33 -116 -98 -193 -208 -249
l-33 -17 0 -112 0 -112 55 -24 c98 -42 155 -124 201 -286 30 -107 105 -147
171 -91 l28 24 0 487 0 487 -28 24 c-32 27 -78 31 -118 9z"/>
<path d="M2094 1986 c-11 -8 -30 -38 -43 -68 -106 -240 -141 -293 -251 -383
-89 -73 -165 -110 -277 -136 l-93 -21 0 -104 0 -104 405 0 405 0 0 380 c0 410
-2 430 -52 444 -38 10 -72 7 -94 -8z"/>
</g>
</svg>
