<svg>
    <symbol id="mail" viewBox="0 0 512 512">
        <path d="M467,61H45C20.218,61,0,81.196,0,106v300c0,24.72,20.128,45,45,45h422c24.72,0,45-20.128,45-45V106
			C512,81.28,491.872,61,467,61z M460.786,91L256.954,294.833L51.359,91H460.786z M30,399.788V112.069l144.479,143.24L30,399.788z
			 M51.213,421l144.57-144.57l50.657,50.222c5.864,5.814,15.327,5.795,21.167-0.046L317,277.213L460.787,421H51.213z M482,399.787
			L338.213,256L482,112.212V399.787z"/>
    </symbol>
    <symbol id="facebook" viewBox="0 0 512 512">
        <path d="M288,176v-64c0-17.664,14.336-32,32-32h32V0h-64c-53.024,0-96,42.976-96,96v80h-64v80h64v256h96V256h64l32-80H288z"/>
    </symbol>
    <symbol id="twitter" viewBox="0 0 512 512">
        <path d="M512,97.248c-19.04,8.352-39.328,13.888-60.48,16.576c21.76-12.992,38.368-33.408,46.176-58.016
			c-20.288,12.096-42.688,20.64-66.56,25.408C411.872,60.704,384.416,48,354.464,48c-58.112,0-104.896,47.168-104.896,104.992
			c0,8.32,0.704,16.32,2.432,23.936c-87.264-4.256-164.48-46.08-216.352-109.792c-9.056,15.712-14.368,33.696-14.368,53.056
			c0,36.352,18.72,68.576,46.624,87.232c-16.864-0.32-33.408-5.216-47.424-12.928c0,0.32,0,0.736,0,1.152
			c0,51.008,36.384,93.376,84.096,103.136c-8.544,2.336-17.856,3.456-27.52,3.456c-6.72,0-13.504-0.384-19.872-1.792
			c13.6,41.568,52.192,72.128,98.08,73.12c-35.712,27.936-81.056,44.768-130.144,44.768c-8.608,0-16.864-0.384-25.12-1.44
			C46.496,446.88,101.6,464,161.024,464c193.152,0,298.752-160,298.752-298.688c0-4.64-0.16-9.12-0.384-13.568
			C480.224,136.96,497.728,118.496,512,97.248z"/>
    </symbol>
    <symbol id="pinterest" viewBox="0 0 97.672 97.672">
        <path d="M51.125,0C24.469,0,11.029,19.11,11.029,35.047c0,9.649,3.653,18.232,11.487,21.432c1.286,0.525,2.438,0.019,2.812-1.403
		c0.258-0.985,0.871-3.468,1.144-4.503c0.376-1.407,0.229-1.9-0.807-3.126c-2.259-2.665-3.703-6.115-3.703-11.002
		c0-14.178,10.608-26.87,27.624-26.87c15.064,0,23.342,9.206,23.342,21.5c0,16.176-7.159,29.828-17.786,29.828
		c-5.87,0-10.262-4.854-8.854-10.807c1.686-7.107,4.951-14.778,4.951-19.907c0-4.592-2.463-8.423-7.565-8.423
		c-6,0-10.819,6.207-10.819,14.521c0,5.296,1.789,8.878,1.789,8.878s-6.141,26.015-7.215,30.571
		c-2.145,9.072-0.322,20.195-0.168,21.318c0.089,0.666,0.944,0.824,1.332,0.322c0.555-0.723,7.7-9.544,10.129-18.359
		c0.687-2.496,3.944-15.42,3.944-15.42c1.95,3.717,7.647,6.992,13.706,6.992c18.034,0,30.271-16.441,30.271-38.45
		C86.644,15.498,72.547,0,51.125,0z"/>
    </symbol>
</svg>
